<?xml version="1.0" encoding="UTF-8"?>
<svg width="10px" height="10px" viewBox="0 0 10 10" version="1.1" xmlns="http://www.w3.org/2000/svg" xmlns:xlink="http://www.w3.org/1999/xlink">
    <title>Icons / open</title>
    <g id="Symbols" stroke="none" stroke-width="1" fill="none" fill-rule="evenodd">
        <g id="Footer-Nav-/-Footer-Default" transform="translate(-50.000000, -11.000000)" fill="#FFFFFF">
            <g id="Icons-/-open" transform="translate(49.000000, 10.000000)">
                <path d="M6.37211538,2.53846154 C6.5845326,2.53846154 6.75673077,2.71065971 6.75673077,2.92307692 C6.75673077,3.13296536 6.58860815,3.30358665 6.37968439,3.30761932 L6.37211538,3.30769231 L2.34615385,3.30769231 C2.03071429,3.30769231 1.77440275,3.56084945 1.76930806,3.87507491 L1.76923077,3.88461538 L1.76923077,9.65384615 C1.76923077,9.96928571 2.02238791,10.2255973 2.33661337,10.2306919 L2.34615385,10.2307692 L8.11538462,10.2307692 C8.26839413,10.2307692 8.41513677,10.1699864 8.52333084,10.0617924 C8.62894885,9.95617436 8.6893864,9.81382156 8.6922045,9.66476431 L8.69230769,9.65384615 L8.69230769,5.23076923 C8.69230769,5.01835202 8.86450587,4.84615385 9.07692308,4.84615385 C9.28681151,4.84615385 9.45743281,5.01427647 9.46153846,5.22320022 L9.46153846,5.23076923 L9.46153846,9.65384615 C9.46153846,10.0108684 9.31971195,10.3532678 9.06725913,10.6057207 C8.81846505,10.8545147 8.48231254,10.9958659 8.13089788,10.9999107 L8.11538462,11 L2.34615385,11 C1.61012821,11 1.01206795,10.4093 1.00018035,9.67610727 L1,9.65384615 L1,3.88461538 C1,3.14858975 1.5907,2.55052949 2.32389273,2.53864188 L2.34615385,2.53846154 L6.37211538,2.53846154 Z M10.6153846,1 C10.8252731,1 10.9958943,1.16812262 10.999927,1.37704638 L11,1.38461538 L11,4.07692308 C11,4.28934029 10.8278018,4.46153846 10.6153846,4.46153846 C10.4054962,4.46153846 10.2348749,4.29341584 10.2308422,4.08449208 L10.2307692,4.07692308 L10.2307692,2.313125 L5.50273338,7.04119492 C5.35253173,7.19139657 5.10900673,7.19139657 4.95880508,7.04119492 C4.81068957,6.8930794 4.80863241,6.65421485 4.9526336,6.50357853 L4.95880508,6.49726662 L9.68685096,1.76923077 L7.92307692,1.76923077 C7.71318849,1.76923077 7.54256719,1.60110815 7.53853453,1.39218439 L7.53846154,1.38461538 C7.53846154,1.17472695 7.70658416,1.00410566 7.91550792,1.00007299 L7.92307692,1 L10.6153846,1 Z" id="Icon-Color"></path>
            </g>
        </g>
    </g>
</svg>